<mxfile host="app.diagrams.net" agent="Mozilla/5.0 (Windows NT 10.0; Win64; x64) AppleWebKit/537.36 (KHTML, like Gecko) Chrome/130.0.0.0 Safari/537.36" version="24.8.3">
  <diagram name="Page-1" id="K8ZZ-9xjgpRWjNTjmY1s">
    <mxGraphModel dx="1012" dy="567" grid="1" gridSize="10" guides="1" tooltips="1" connect="1" arrows="1" fold="1" page="1" pageScale="1" pageWidth="3300" pageHeight="4681" math="0" shadow="0">
      <root>
        <mxCell id="0" />
        <mxCell id="1" parent="0" />
        <mxCell id="Pz0wNZ6N-7INPNuhXWgC-19" value="" style="rounded=0;whiteSpace=wrap;html=1;" parent="1" vertex="1">
          <mxGeometry x="100" y="40" width="1090" height="580" as="geometry" />
        </mxCell>
        <mxCell id="Pz0wNZ6N-7INPNuhXWgC-20" value="" style="shape=umlLifeline;perimeter=lifelinePerimeter;whiteSpace=wrap;html=1;container=1;dropTarget=0;collapsible=0;recursiveResize=0;outlineConnect=0;portConstraint=eastwest;newEdgeStyle={&quot;curved&quot;:0,&quot;rounded&quot;:0};participant=umlActor;" parent="1" vertex="1">
          <mxGeometry x="180" y="122" width="20" height="478" as="geometry" />
        </mxCell>
        <mxCell id="Pz0wNZ6N-7INPNuhXWgC-21" value="&lt;b&gt;&lt;font style=&quot;font-size: 15px;&quot;&gt;interface&lt;/font&gt;&lt;/b&gt;" style="shape=umlLifeline;perimeter=lifelinePerimeter;whiteSpace=wrap;html=1;container=1;dropTarget=0;collapsible=0;recursiveResize=0;outlineConnect=0;portConstraint=eastwest;newEdgeStyle={&quot;curved&quot;:0,&quot;rounded&quot;:0};" parent="1" vertex="1">
          <mxGeometry x="301" y="147" width="100" height="453" as="geometry" />
        </mxCell>
        <mxCell id="Pz0wNZ6N-7INPNuhXWgC-22" value="" style="html=1;points=[[0,0,0,0,5],[0,1,0,0,-5],[1,0,0,0,5],[1,1,0,0,-5]];perimeter=orthogonalPerimeter;outlineConnect=0;targetShapes=umlLifeline;portConstraint=eastwest;newEdgeStyle={&quot;curved&quot;:0,&quot;rounded&quot;:0};" parent="Pz0wNZ6N-7INPNuhXWgC-21" vertex="1">
          <mxGeometry x="45" y="80" width="10" height="340" as="geometry" />
        </mxCell>
        <mxCell id="Pz0wNZ6N-7INPNuhXWgC-23" value="&lt;font style=&quot;font-size: 15px;&quot;&gt;&lt;b&gt;Views&lt;/b&gt;&lt;/font&gt;" style="shape=umlLifeline;perimeter=lifelinePerimeter;whiteSpace=wrap;html=1;container=1;dropTarget=0;collapsible=0;recursiveResize=0;outlineConnect=0;portConstraint=eastwest;newEdgeStyle={&quot;curved&quot;:0,&quot;rounded&quot;:0};" parent="1" vertex="1">
          <mxGeometry x="613" y="147" width="100" height="453" as="geometry" />
        </mxCell>
        <mxCell id="Pz0wNZ6N-7INPNuhXWgC-24" value="" style="html=1;points=[[0,0,0,0,5],[0,1,0,0,-5],[1,0,0,0,5],[1,1,0,0,-5]];perimeter=orthogonalPerimeter;outlineConnect=0;targetShapes=umlLifeline;portConstraint=eastwest;newEdgeStyle={&quot;curved&quot;:0,&quot;rounded&quot;:0};" parent="Pz0wNZ6N-7INPNuhXWgC-23" vertex="1">
          <mxGeometry x="45" y="110" width="10" height="320" as="geometry" />
        </mxCell>
        <mxCell id="Pz0wNZ6N-7INPNuhXWgC-25" value="&lt;font style=&quot;font-size: 15px;&quot;&gt;&lt;b&gt;Reformulation&lt;/b&gt;&lt;/font&gt;" style="shape=umlLifeline;perimeter=lifelinePerimeter;whiteSpace=wrap;html=1;container=1;dropTarget=0;collapsible=0;recursiveResize=0;outlineConnect=0;portConstraint=eastwest;newEdgeStyle={&quot;curved&quot;:0,&quot;rounded&quot;:0};" parent="1" vertex="1">
          <mxGeometry x="911" y="147" width="100" height="453" as="geometry" />
        </mxCell>
        <mxCell id="Pz0wNZ6N-7INPNuhXWgC-26" value="" style="html=1;points=[[0,0,0,0,5],[0,1,0,0,-5],[1,0,0,0,5],[1,1,0,0,-5]];perimeter=orthogonalPerimeter;outlineConnect=0;targetShapes=umlLifeline;portConstraint=eastwest;newEdgeStyle={&quot;curved&quot;:0,&quot;rounded&quot;:0};" parent="Pz0wNZ6N-7INPNuhXWgC-25" vertex="1">
          <mxGeometry x="47" y="123" width="10" height="80" as="geometry" />
        </mxCell>
        <mxCell id="Pz0wNZ6N-7INPNuhXWgC-27" value="&lt;font style=&quot;font-size: 15px;&quot;&gt;&lt;b&gt;Instruction&lt;/b&gt;&lt;/font&gt;" style="shape=umlLifeline;perimeter=lifelinePerimeter;whiteSpace=wrap;html=1;container=1;dropTarget=0;collapsible=0;recursiveResize=0;outlineConnect=0;portConstraint=eastwest;newEdgeStyle={&quot;curved&quot;:0,&quot;rounded&quot;:0};" parent="1" vertex="1">
          <mxGeometry x="1061" y="147" width="100" height="453" as="geometry" />
        </mxCell>
        <mxCell id="Pz0wNZ6N-7INPNuhXWgC-28" value="" style="html=1;points=[[0,0,0,0,5],[0,1,0,0,-5],[1,0,0,0,5],[1,1,0,0,-5]];perimeter=orthogonalPerimeter;outlineConnect=0;targetShapes=umlLifeline;portConstraint=eastwest;newEdgeStyle={&quot;curved&quot;:0,&quot;rounded&quot;:0};" parent="Pz0wNZ6N-7INPNuhXWgC-27" vertex="1">
          <mxGeometry x="45" y="233" width="10" height="80" as="geometry" />
        </mxCell>
        <mxCell id="Pz0wNZ6N-7INPNuhXWgC-29" value="&lt;font style=&quot;font-size: 15px;&quot;&gt;ValiderReformulation()&lt;/font&gt;" style="html=1;verticalAlign=bottom;endArrow=block;curved=0;rounded=0;entryX=0;entryY=0;entryDx=0;entryDy=5;" parent="1" source="Pz0wNZ6N-7INPNuhXWgC-20" target="Pz0wNZ6N-7INPNuhXWgC-22" edge="1">
          <mxGeometry relative="1" as="geometry">
            <mxPoint x="231.83333333333326" y="232.00000000000034" as="sourcePoint" />
          </mxGeometry>
        </mxCell>
        <mxCell id="Pz0wNZ6N-7INPNuhXWgC-30" value="&lt;font style=&quot;font-size: 14px;&quot;&gt;Validée avec succès&lt;/font&gt;" style="html=1;verticalAlign=bottom;endArrow=open;dashed=1;endSize=8;curved=0;rounded=0;" parent="1" edge="1">
          <mxGeometry relative="1" as="geometry">
            <mxPoint x="189.5" y="533" as="targetPoint" />
            <mxPoint x="346" y="533" as="sourcePoint" />
          </mxGeometry>
        </mxCell>
        <mxCell id="Pz0wNZ6N-7INPNuhXWgC-31" value="&lt;font style=&quot;font-size: 15px;&quot;&gt;ValidateReformulationById(id_reformulation)&lt;/font&gt;" style="html=1;verticalAlign=bottom;endArrow=block;curved=0;rounded=0;entryX=0;entryY=0;entryDx=0;entryDy=5;" parent="1" source="Pz0wNZ6N-7INPNuhXWgC-21" target="Pz0wNZ6N-7INPNuhXWgC-24" edge="1">
          <mxGeometry x="0.0024" relative="1" as="geometry">
            <mxPoint x="533" y="262" as="sourcePoint" />
            <mxPoint as="offset" />
          </mxGeometry>
        </mxCell>
        <mxCell id="Pz0wNZ6N-7INPNuhXWgC-32" value="&lt;font style=&quot;font-size: 15px;&quot;&gt;Status 200&lt;/font&gt;" style="html=1;verticalAlign=bottom;endArrow=open;dashed=1;endSize=8;curved=0;rounded=0;exitX=0;exitY=1;exitDx=0;exitDy=-5;" parent="1" edge="1" target="Pz0wNZ6N-7INPNuhXWgC-22">
          <mxGeometry relative="1" as="geometry">
            <mxPoint x="430.0033333333333" y="499.99999999999886" as="targetPoint" />
            <mxPoint x="669.17" y="499.99999999999886" as="sourcePoint" />
          </mxGeometry>
        </mxCell>
        <mxCell id="Pz0wNZ6N-7INPNuhXWgC-33" value="&lt;font style=&quot;font-size: 15px;&quot;&gt;GetReformulationByID(id_reformulation)&lt;/font&gt;" style="html=1;verticalAlign=bottom;endArrow=block;curved=0;rounded=0;entryX=0;entryY=0;entryDx=0;entryDy=5;" parent="1" source="Pz0wNZ6N-7INPNuhXWgC-23" target="Pz0wNZ6N-7INPNuhXWgC-26" edge="1">
          <mxGeometry relative="1" as="geometry">
            <mxPoint x="820" y="275" as="sourcePoint" />
          </mxGeometry>
        </mxCell>
        <mxCell id="Pz0wNZ6N-7INPNuhXWgC-34" value="&lt;font style=&quot;font-size: 15px;&quot;&gt;reformulation&lt;/font&gt;" style="html=1;verticalAlign=bottom;endArrow=open;dashed=1;endSize=8;curved=0;rounded=0;exitX=0;exitY=1;exitDx=0;exitDy=-5;" parent="1" source="Pz0wNZ6N-7INPNuhXWgC-26" target="Pz0wNZ6N-7INPNuhXWgC-23" edge="1">
          <mxGeometry relative="1" as="geometry">
            <mxPoint x="820" y="345" as="targetPoint" />
          </mxGeometry>
        </mxCell>
        <mxCell id="Pz0wNZ6N-7INPNuhXWgC-35" value="&lt;font style=&quot;font-size: 15px;&quot;&gt;UpdataInstructionById(Id, NewData)&lt;/font&gt;" style="html=1;verticalAlign=bottom;endArrow=block;curved=0;rounded=0;entryX=0;entryY=0;entryDx=0;entryDy=5;" parent="1" source="Pz0wNZ6N-7INPNuhXWgC-24" target="Pz0wNZ6N-7INPNuhXWgC-28" edge="1">
          <mxGeometry relative="1" as="geometry">
            <mxPoint x="600" y="345" as="sourcePoint" />
          </mxGeometry>
        </mxCell>
        <mxCell id="Pz0wNZ6N-7INPNuhXWgC-36" value="&lt;font style=&quot;font-size: 15px;&quot;&gt;succes&lt;/font&gt;" style="html=1;verticalAlign=bottom;endArrow=open;dashed=1;endSize=8;curved=0;rounded=0;exitX=0;exitY=1;exitDx=0;exitDy=-5;" parent="1" source="Pz0wNZ6N-7INPNuhXWgC-28" target="Pz0wNZ6N-7INPNuhXWgC-23" edge="1">
          <mxGeometry relative="1" as="geometry">
            <mxPoint x="600" y="415" as="targetPoint" />
          </mxGeometry>
        </mxCell>
        <mxCell id="Pz0wNZ6N-7INPNuhXWgC-37" value="&lt;font style=&quot;font-size: 15px;&quot;&gt;Seq: Valider Instruction&lt;/font&gt;" style="shape=umlFrame;whiteSpace=wrap;html=1;pointerEvents=0;recursiveResize=0;container=1;collapsible=0;width=160;" parent="1" vertex="1">
          <mxGeometry x="150" y="70" width="1020" height="530" as="geometry" />
        </mxCell>
        <mxCell id="8XyAbyhBh-sy9a6bDNWG-1" value="&lt;b&gt;USER&lt;/b&gt;" style="text;html=1;align=center;verticalAlign=middle;whiteSpace=wrap;rounded=0;" vertex="1" parent="1">
          <mxGeometry x="160" y="170" width="60" height="30" as="geometry" />
        </mxCell>
      </root>
    </mxGraphModel>
  </diagram>
</mxfile>
